<svg xmlns="http://www.w3.org/2000/svg" width="280" height="48" fill="none">
  <defs>
    <linearGradient id="logoGrad" x1="0%" y1="0%" x2="100%" y2="100%">
      <stop offset="0%" style="stop-color:#1e3a8a"/>
      <stop offset="100%" style="stop-color:#06b6d4"/>
    </linearGradient>
  </defs>
  <!-- Shield Icon -->
  <path fill="url(#logoGrad)" d="M24 4C24 4 6 12 6 28C6 44 24 56 24 56C24 56 42 44 42 28C42 12 24 4 24 4Z"/>
  <!-- Lock circle -->
  <circle cx="24" cy="26" r="6" fill="white"/>
  <!-- Lock body -->
  <rect x="19" y="28" width="10" height="12" rx="2" fill="white"/>
  <rect x="22" y="34" width="4" height="4" fill="#1e3a8a"/>
  <!-- Graduation cap -->
  <polygon fill="white" points="24,2 10,10 24,16 38,10" opacity="0.95"/>
  <rect x="23" y="0" width="2" height="4" fill="white"/>
  <!-- Text: CyberSec Study Hub -->
  <text x="52" y="24" font-family="system-ui, -apple-system, sans-serif" font-size="16" font-weight="700" fill="#1e3a8a">CyberSec</text>
  <text x="52" y="42" font-family="system-ui, -apple-system, sans-serif" font-size="14" font-weight="500" fill="#06b6d4">Study Hub</text>
</svg>